# Tiled2Unity generated file. Do not modify by hand.
# Wavefront file for 'HomeTresorInterior_mesh_0001.obj'

# Vertices (Count = 720)
v -272 -16 0
v -288 -16 0
v -288 0 0
v -272 0 0
v -256 -16 0
v -272 -16 0
v -272 0 0
v -256 0 0
v -240 -16 0
v -256 -16 0
v -256 0 0
v -240 0 0
v -224 -16 0
v -240 -16 0
v -240 0 0
v -224 0 0
v -208 -16 0
v -224 -16 0
v -224 0 0
v -208 0 0
v -192 -16 0
v -208 -16 0
v -208 0 0
v -192 0 0
v -176 -16 0
v -192 -16 0
v -192 0 0
v -176 0 0
v -160 -16 0
v -176 -16 0
v -176 0 0
v -160 0 0
v -144 -16 0
v -160 -16 0
v -160 0 0
v -144 0 0
v -128 -16 0
v -144 -16 0
v -144 0 0
v -128 0 0
v -112 -16 0
v -128 -16 0
v -128 0 0
v -112 0 0
v -96 -16 0
v -112 -16 0
v -112 0 0
v -96 0 0
v -80 -16 0
v -96 -16 0
v -96 0 0
v -80 0 0
v -64 -16 0
v -80 -16 0
v -80 0 0
v -64 0 0
v -48 -16 0
v -64 -16 0
v -64 0 0
v -48 0 0
v -32 -16 0
v -48 -16 0
v -48 0 0
v -32 0 0
v -16 -16 0
v -32 -16 0
v -32 0 0
v -16 0 0
v 0 -16 0
v -16 -16 0
v -16 0 0
v 0 0 0
v -272 -32 0
v -288 -32 0
v -288 -16 0
v -272 -16 0
v -256 -32 0
v -272 -32 0
v -272 -16 0
v -256 -16 0
v -240 -32 0
v -256 -32 0
v -256 -16 0
v -240 -16 0
v -224 -32 0
v -240 -32 0
v -240 -16 0
v -224 -16 0
v -208 -32 0
v -224 -32 0
v -224 -16 0
v -208 -16 0
v -192 -32 0
v -208 -32 0
v -208 -16 0
v -192 -16 0
v -176 -32 0
v -192 -32 0
v -192 -16 0
v -176 -16 0
v -160 -32 0
v -176 -32 0
v -176 -16 0
v -160 -16 0
v -144 -32 0
v -160 -32 0
v -160 -16 0
v -144 -16 0
v -128 -32 0
v -144 -32 0
v -144 -16 0
v -128 -16 0
v -112 -32 0
v -128 -32 0
v -128 -16 0
v -112 -16 0
v -96 -32 0
v -112 -32 0
v -112 -16 0
v -96 -16 0
v -80 -32 0
v -96 -32 0
v -96 -16 0
v -80 -16 0
v -64 -32 0
v -80 -32 0
v -80 -16 0
v -64 -16 0
v -48 -32 0
v -64 -32 0
v -64 -16 0
v -48 -16 0
v -32 -32 0
v -48 -32 0
v -48 -16 0
v -32 -16 0
v -16 -32 0
v -32 -32 0
v -32 -16 0
v -16 -16 0
v 0 -32 0
v -16 -32 0
v -16 -16 0
v 0 -16 0
v -272 -48 0
v -288 -48 0
v -288 -32 0
v -272 -32 0
v -256 -48 0
v -272 -48 0
v -272 -32 0
v -256 -32 0
v -240 -48 0
v -256 -48 0
v -256 -32 0
v -240 -32 0
v -224 -48 0
v -240 -48 0
v -240 -32 0
v -224 -32 0
v -208 -48 0
v -224 -48 0
v -224 -32 0
v -208 -32 0
v -192 -48 0
v -208 -48 0
v -208 -32 0
v -192 -32 0
v -176 -48 0
v -192 -48 0
v -192 -32 0
v -176 -32 0
v -160 -48 0
v -176 -48 0
v -176 -32 0
v -160 -32 0
v -144 -48 0
v -160 -48 0
v -160 -32 0
v -144 -32 0
v -128 -48 0
v -144 -48 0
v -144 -32 0
v -128 -32 0
v -112 -48 0
v -128 -48 0
v -128 -32 0
v -112 -32 0
v -96 -48 0
v -112 -48 0
v -112 -32 0
v -96 -32 0
v -80 -48 0
v -96 -48 0
v -96 -32 0
v -80 -32 0
v -64 -48 0
v -80 -48 0
v -80 -32 0
v -64 -32 0
v -48 -48 0
v -64 -48 0
v -64 -32 0
v -48 -32 0
v -32 -48 0
v -48 -48 0
v -48 -32 0
v -32 -32 0
v -16 -48 0
v -32 -48 0
v -32 -32 0
v -16 -32 0
v 0 -48 0
v -16 -48 0
v -16 -32 0
v 0 -32 0
v -272 -64 0
v -288 -64 0
v -288 -48 0
v -272 -48 0
v -256 -64 0
v -272 -64 0
v -272 -48 0
v -256 -48 0
v -240 -64 0
v -256 -64 0
v -256 -48 0
v -240 -48 0
v -224 -64 0
v -240 -64 0
v -240 -48 0
v -224 -48 0
v -208 -64 0
v -224 -64 0
v -224 -48 0
v -208 -48 0
v -192 -64 0
v -208 -64 0
v -208 -48 0
v -192 -48 0
v -176 -64 0
v -192 -64 0
v -192 -48 0
v -176 -48 0
v -160 -64 0
v -176 -64 0
v -176 -48 0
v -160 -48 0
v -144 -64 0
v -160 -64 0
v -160 -48 0
v -144 -48 0
v -128 -64 0
v -144 -64 0
v -144 -48 0
v -128 -48 0
v -112 -64 0
v -128 -64 0
v -128 -48 0
v -112 -48 0
v -96 -64 0
v -112 -64 0
v -112 -48 0
v -96 -48 0
v -80 -64 0
v -96 -64 0
v -96 -48 0
v -80 -48 0
v -64 -64 0
v -80 -64 0
v -80 -48 0
v -64 -48 0
v -48 -64 0
v -64 -64 0
v -64 -48 0
v -48 -48 0
v -32 -64 0
v -48 -64 0
v -48 -48 0
v -32 -48 0
v -16 -64 0
v -32 -64 0
v -32 -48 0
v -16 -48 0
v 0 -64 0
v -16 -64 0
v -16 -48 0
v 0 -48 0
v -272 -80 0
v -288 -80 0
v -288 -64 0
v -272 -64 0
v -256 -80 0
v -272 -80 0
v -272 -64 0
v -256 -64 0
v -240 -80 0
v -256 -80 0
v -256 -64 0
v -240 -64 0
v -224 -80 0
v -240 -80 0
v -240 -64 0
v -224 -64 0
v -208 -80 0
v -224 -80 0
v -224 -64 0
v -208 -64 0
v -192 -80 0
v -208 -80 0
v -208 -64 0
v -192 -64 0
v -176 -80 0
v -192 -80 0
v -192 -64 0
v -176 -64 0
v -160 -80 0
v -176 -80 0
v -176 -64 0
v -160 -64 0
v -144 -80 0
v -160 -80 0
v -160 -64 0
v -144 -64 0
v -128 -80 0
v -144 -80 0
v -144 -64 0
v -128 -64 0
v -112 -80 0
v -128 -80 0
v -128 -64 0
v -112 -64 0
v -96 -80 0
v -112 -80 0
v -112 -64 0
v -96 -64 0
v -80 -80 0
v -96 -80 0
v -96 -64 0
v -80 -64 0
v -64 -80 0
v -80 -80 0
v -80 -64 0
v -64 -64 0
v -48 -80 0
v -64 -80 0
v -64 -64 0
v -48 -64 0
v -32 -80 0
v -48 -80 0
v -48 -64 0
v -32 -64 0
v -16 -80 0
v -32 -80 0
v -32 -64 0
v -16 -64 0
v 0 -80 0
v -16 -80 0
v -16 -64 0
v 0 -64 0
v -272 -96 0
v -288 -96 0
v -288 -80 0
v -272 -80 0
v -256 -96 0
v -272 -96 0
v -272 -80 0
v -256 -80 0
v -240 -96 0
v -256 -96 0
v -256 -80 0
v -240 -80 0
v -224 -96 0
v -240 -96 0
v -240 -80 0
v -224 -80 0
v -208 -96 0
v -224 -96 0
v -224 -80 0
v -208 -80 0
v -192 -96 0
v -208 -96 0
v -208 -80 0
v -192 -80 0
v -176 -96 0
v -192 -96 0
v -192 -80 0
v -176 -80 0
v -160 -96 0
v -176 -96 0
v -176 -80 0
v -160 -80 0
v -144 -96 0
v -160 -96 0
v -160 -80 0
v -144 -80 0
v -128 -96 0
v -144 -96 0
v -144 -80 0
v -128 -80 0
v -112 -96 0
v -128 -96 0
v -128 -80 0
v -112 -80 0
v -96 -96 0
v -112 -96 0
v -112 -80 0
v -96 -80 0
v -80 -96 0
v -96 -96 0
v -96 -80 0
v -80 -80 0
v -64 -96 0
v -80 -96 0
v -80 -80 0
v -64 -80 0
v -48 -96 0
v -64 -96 0
v -64 -80 0
v -48 -80 0
v -32 -96 0
v -48 -96 0
v -48 -80 0
v -32 -80 0
v -16 -96 0
v -32 -96 0
v -32 -80 0
v -16 -80 0
v 0 -96 0
v -16 -96 0
v -16 -80 0
v 0 -80 0
v -272 -112 0
v -288 -112 0
v -288 -96 0
v -272 -96 0
v -256 -112 0
v -272 -112 0
v -272 -96 0
v -256 -96 0
v -240 -112 0
v -256 -112 0
v -256 -96 0
v -240 -96 0
v -224 -112 0
v -240 -112 0
v -240 -96 0
v -224 -96 0
v -208 -112 0
v -224 -112 0
v -224 -96 0
v -208 -96 0
v -192 -112 0
v -208 -112 0
v -208 -96 0
v -192 -96 0
v -176 -112 0
v -192 -112 0
v -192 -96 0
v -176 -96 0
v -160 -112 0
v -176 -112 0
v -176 -96 0
v -160 -96 0
v -144 -112 0
v -160 -112 0
v -160 -96 0
v -144 -96 0
v -128 -112 0
v -144 -112 0
v -144 -96 0
v -128 -96 0
v -112 -112 0
v -128 -112 0
v -128 -96 0
v -112 -96 0
v -96 -112 0
v -112 -112 0
v -112 -96 0
v -96 -96 0
v -80 -112 0
v -96 -112 0
v -96 -96 0
v -80 -96 0
v -64 -112 0
v -80 -112 0
v -80 -96 0
v -64 -96 0
v -48 -112 0
v -64 -112 0
v -64 -96 0
v -48 -96 0
v -32 -112 0
v -48 -112 0
v -48 -96 0
v -32 -96 0
v -16 -112 0
v -32 -112 0
v -32 -96 0
v -16 -96 0
v 0 -112 0
v -16 -112 0
v -16 -96 0
v 0 -96 0
v -272 -128 0
v -288 -128 0
v -288 -112 0
v -272 -112 0
v -256 -128 0
v -272 -128 0
v -272 -112 0
v -256 -112 0
v -240 -128 0
v -256 -128 0
v -256 -112 0
v -240 -112 0
v -224 -128 0
v -240 -128 0
v -240 -112 0
v -224 -112 0
v -208 -128 0
v -224 -128 0
v -224 -112 0
v -208 -112 0
v -192 -128 0
v -208 -128 0
v -208 -112 0
v -192 -112 0
v -176 -128 0
v -192 -128 0
v -192 -112 0
v -176 -112 0
v -160 -128 0
v -176 -128 0
v -176 -112 0
v -160 -112 0
v -144 -128 0
v -160 -128 0
v -160 -112 0
v -144 -112 0
v -128 -128 0
v -144 -128 0
v -144 -112 0
v -128 -112 0
v -112 -128 0
v -128 -128 0
v -128 -112 0
v -112 -112 0
v -96 -128 0
v -112 -128 0
v -112 -112 0
v -96 -112 0
v -80 -128 0
v -96 -128 0
v -96 -112 0
v -80 -112 0
v -64 -128 0
v -80 -128 0
v -80 -112 0
v -64 -112 0
v -48 -128 0
v -64 -128 0
v -64 -112 0
v -48 -112 0
v -32 -128 0
v -48 -128 0
v -48 -112 0
v -32 -112 0
v -16 -128 0
v -32 -128 0
v -32 -112 0
v -16 -112 0
v 0 -128 0
v -16 -128 0
v -16 -112 0
v 0 -112 0
v -272 -144 0
v -288 -144 0
v -288 -128 0
v -272 -128 0
v -256 -144 0
v -272 -144 0
v -272 -128 0
v -256 -128 0
v -240 -144 0
v -256 -144 0
v -256 -128 0
v -240 -128 0
v -224 -144 0
v -240 -144 0
v -240 -128 0
v -224 -128 0
v -208 -144 0
v -224 -144 0
v -224 -128 0
v -208 -128 0
v -192 -144 0
v -208 -144 0
v -208 -128 0
v -192 -128 0
v -176 -144 0
v -192 -144 0
v -192 -128 0
v -176 -128 0
v -160 -144 0
v -176 -144 0
v -176 -128 0
v -160 -128 0
v -144 -144 0
v -160 -144 0
v -160 -128 0
v -144 -128 0
v -128 -144 0
v -144 -144 0
v -144 -128 0
v -128 -128 0
v -112 -144 0
v -128 -144 0
v -128 -128 0
v -112 -128 0
v -96 -144 0
v -112 -144 0
v -112 -128 0
v -96 -128 0
v -80 -144 0
v -96 -144 0
v -96 -128 0
v -80 -128 0
v -64 -144 0
v -80 -144 0
v -80 -128 0
v -64 -128 0
v -48 -144 0
v -64 -144 0
v -64 -128 0
v -48 -128 0
v -32 -144 0
v -48 -144 0
v -48 -128 0
v -32 -128 0
v -16 -144 0
v -32 -144 0
v -32 -128 0
v -16 -128 0
v 0 -144 0
v -16 -144 0
v -16 -128 0
v 0 -128 0
v -272 -160 0
v -288 -160 0
v -288 -144 0
v -272 -144 0
v -256 -160 0
v -272 -160 0
v -272 -144 0
v -256 -144 0
v -240 -160 0
v -256 -160 0
v -256 -144 0
v -240 -144 0
v -224 -160 0
v -240 -160 0
v -240 -144 0
v -224 -144 0
v -208 -160 0
v -224 -160 0
v -224 -144 0
v -208 -144 0
v -192 -160 0
v -208 -160 0
v -208 -144 0
v -192 -144 0
v -176 -160 0
v -192 -160 0
v -192 -144 0
v -176 -144 0
v -160 -160 0
v -176 -160 0
v -176 -144 0
v -160 -144 0
v -144 -160 0
v -160 -160 0
v -160 -144 0
v -144 -144 0
v -128 -160 0
v -144 -160 0
v -144 -144 0
v -128 -144 0
v -112 -160 0
v -128 -160 0
v -128 -144 0
v -112 -144 0
v -96 -160 0
v -112 -160 0
v -112 -144 0
v -96 -144 0
v -80 -160 0
v -96 -160 0
v -96 -144 0
v -80 -144 0
v -64 -160 0
v -80 -160 0
v -80 -144 0
v -64 -144 0
v -48 -160 0
v -64 -160 0
v -64 -144 0
v -48 -144 0
v -32 -160 0
v -48 -160 0
v -48 -144 0
v -32 -144 0
v -16 -160 0
v -32 -160 0
v -32 -144 0
v -16 -144 0
v 0 -160 0
v -16 -160 0
v -16 -144 0
v 0 -144 0

# Texture cooridinates (Count = 24)
vt 0.075 0.96
vt 0.1 0.96
vt 0.1 1
vt 0.075 1
vt 0.05 0.96
vt 0.05 1
vt 0.025 0.96
vt 0.025 1
vt 0.075 0.92
vt 0.1 0.92
vt 0.125 0.96
vt 0.15 0.96
vt 0.15 1
vt 0.125 1
vt 0.05 0.88
vt 0.075 0.88
vt 0.05 0.92
vt 0.025 0.92
vt 0 0.92
vt 0 0.96
vt 0.125 0.92
vt 0.15 0.92
vt 0.1 0.88
vt 0.025 0.88

# Normal
vn 0 0 -1

# Mesh description
g HomeTresorInterior_mesh_0001

# Faces
f 1/1/1 2/2/1 3/3/1 4/4/1
f 5/5/1 6/1/1 7/4/1 8/6/1
f 9/5/1 10/1/1 11/4/1 12/6/1
f 13/5/1 14/1/1 15/4/1 16/6/1
f 17/5/1 18/1/1 19/4/1 20/6/1
f 21/5/1 22/1/1 23/4/1 24/6/1
f 25/5/1 26/1/1 27/4/1 28/6/1
f 29/5/1 30/1/1 31/4/1 32/6/1
f 33/5/1 34/1/1 35/4/1 36/6/1
f 37/5/1 38/1/1 39/4/1 40/6/1
f 41/5/1 42/1/1 43/4/1 44/6/1
f 45/5/1 46/1/1 47/4/1 48/6/1
f 49/5/1 50/1/1 51/4/1 52/6/1
f 53/5/1 54/1/1 55/4/1 56/6/1
f 57/5/1 58/1/1 59/4/1 60/6/1
f 61/5/1 62/1/1 63/4/1 64/6/1
f 65/5/1 66/1/1 67/4/1 68/6/1
f 69/7/1 70/5/1 71/6/1 72/8/1
f 73/9/1 74/10/1 75/2/1 76/1/1
f 77/11/1 78/12/1 79/13/1 80/14/1
f 81/15/1 82/16/1 83/9/1 84/17/1
f 85/15/1 86/16/1 87/9/1 88/17/1
f 89/15/1 90/16/1 91/9/1 92/17/1
f 93/15/1 94/16/1 95/9/1 96/17/1
f 97/15/1 98/16/1 99/9/1 100/17/1
f 101/15/1 102/16/1 103/9/1 104/17/1
f 105/15/1 106/16/1 107/9/1 108/17/1
f 109/15/1 110/16/1 111/9/1 112/17/1
f 113/15/1 114/16/1 115/9/1 116/17/1
f 117/15/1 118/16/1 119/9/1 120/17/1
f 121/15/1 122/16/1 123/9/1 124/17/1
f 125/15/1 126/16/1 127/9/1 128/17/1
f 129/15/1 130/16/1 131/9/1 132/17/1
f 133/15/1 134/16/1 135/9/1 136/17/1
f 137/2/1 138/11/1 139/14/1 140/3/1
f 141/18/1 142/17/1 143/5/1 144/7/1
f 145/9/1 146/10/1 147/2/1 148/1/1
f 149/18/1 150/17/1 151/5/1 152/7/1
f 153/19/1 154/18/1 155/7/1 156/20/1
f 157/19/1 158/18/1 159/7/1 160/20/1
f 161/19/1 162/18/1 163/7/1 164/20/1
f 165/19/1 166/18/1 167/7/1 168/20/1
f 169/19/1 170/18/1 171/7/1 172/20/1
f 173/19/1 174/18/1 175/7/1 176/20/1
f 177/19/1 178/18/1 179/7/1 180/20/1
f 181/19/1 182/18/1 183/7/1 184/20/1
f 185/19/1 186/18/1 187/7/1 188/20/1
f 189/19/1 190/18/1 191/7/1 192/20/1
f 193/19/1 194/18/1 195/7/1 196/20/1
f 197/19/1 198/18/1 199/7/1 200/20/1
f 201/19/1 202/18/1 203/7/1 204/20/1
f 205/19/1 206/18/1 207/7/1 208/20/1
f 209/9/1 210/10/1 211/2/1 212/1/1
f 213/18/1 214/17/1 215/5/1 216/7/1
f 217/9/1 218/10/1 219/2/1 220/1/1
f 221/18/1 222/17/1 223/5/1 224/7/1
f 225/19/1 226/18/1 227/7/1 228/20/1
f 229/19/1 230/18/1 231/7/1 232/20/1
f 233/19/1 234/18/1 235/7/1 236/20/1
f 237/19/1 238/18/1 239/7/1 240/20/1
f 241/19/1 242/18/1 243/7/1 244/20/1
f 245/19/1 246/18/1 247/7/1 248/20/1
f 249/19/1 250/18/1 251/7/1 252/20/1
f 253/19/1 254/18/1 255/7/1 256/20/1
f 257/19/1 258/18/1 259/7/1 260/20/1
f 261/19/1 262/18/1 263/7/1 264/20/1
f 265/19/1 266/18/1 267/7/1 268/20/1
f 269/19/1 270/18/1 271/7/1 272/20/1
f 273/19/1 274/18/1 275/7/1 276/20/1
f 277/19/1 278/18/1 279/7/1 280/20/1
f 281/9/1 282/10/1 283/2/1 284/1/1
f 285/18/1 286/17/1 287/5/1 288/7/1
f 289/9/1 290/10/1 291/2/1 292/1/1
f 293/18/1 294/17/1 295/5/1 296/7/1
f 297/19/1 298/18/1 299/7/1 300/20/1
f 301/19/1 302/18/1 303/7/1 304/20/1
f 305/19/1 306/18/1 307/7/1 308/20/1
f 309/19/1 310/18/1 311/7/1 312/20/1
f 313/19/1 314/18/1 315/7/1 316/20/1
f 317/19/1 318/18/1 319/7/1 320/20/1
f 321/19/1 322/18/1 323/7/1 324/20/1
f 325/19/1 326/18/1 327/7/1 328/20/1
f 329/19/1 330/18/1 331/7/1 332/20/1
f 333/19/1 334/18/1 335/7/1 336/20/1
f 337/19/1 338/18/1 339/7/1 340/20/1
f 341/19/1 342/18/1 343/7/1 344/20/1
f 345/19/1 346/18/1 347/7/1 348/20/1
f 349/19/1 350/18/1 351/7/1 352/20/1
f 353/9/1 354/10/1 355/2/1 356/1/1
f 357/18/1 358/17/1 359/5/1 360/7/1
f 361/9/1 362/10/1 363/2/1 364/1/1
f 365/18/1 366/17/1 367/5/1 368/7/1
f 369/19/1 370/18/1 371/7/1 372/20/1
f 373/19/1 374/18/1 375/7/1 376/20/1
f 377/19/1 378/18/1 379/7/1 380/20/1
f 381/19/1 382/18/1 383/7/1 384/20/1
f 385/19/1 386/18/1 387/7/1 388/20/1
f 389/19/1 390/18/1 391/7/1 392/20/1
f 393/19/1 394/18/1 395/7/1 396/20/1
f 397/19/1 398/18/1 399/7/1 400/20/1
f 401/19/1 402/18/1 403/7/1 404/20/1
f 405/19/1 406/18/1 407/7/1 408/20/1
f 409/19/1 410/18/1 411/7/1 412/20/1
f 413/19/1 414/18/1 415/7/1 416/20/1
f 417/19/1 418/18/1 419/7/1 420/20/1
f 421/19/1 422/18/1 423/7/1 424/20/1
f 425/9/1 426/10/1 427/2/1 428/1/1
f 429/18/1 430/17/1 431/5/1 432/7/1
f 433/9/1 434/10/1 435/2/1 436/1/1
f 437/18/1 438/17/1 439/5/1 440/7/1
f 441/19/1 442/18/1 443/7/1 444/20/1
f 445/19/1 446/18/1 447/7/1 448/20/1
f 449/19/1 450/18/1 451/7/1 452/20/1
f 453/19/1 454/18/1 455/7/1 456/20/1
f 457/19/1 458/18/1 459/7/1 460/20/1
f 461/19/1 462/18/1 463/7/1 464/20/1
f 465/19/1 466/18/1 467/7/1 468/20/1
f 469/19/1 470/18/1 471/7/1 472/20/1
f 473/19/1 474/18/1 475/7/1 476/20/1
f 477/19/1 478/18/1 479/7/1 480/20/1
f 481/19/1 482/18/1 483/7/1 484/20/1
f 485/19/1 486/18/1 487/7/1 488/20/1
f 489/19/1 490/18/1 491/7/1 492/20/1
f 493/19/1 494/18/1 495/7/1 496/20/1
f 497/9/1 498/10/1 499/2/1 500/1/1
f 501/18/1 502/17/1 503/5/1 504/7/1
f 505/9/1 506/10/1 507/2/1 508/1/1
f 509/18/1 510/17/1 511/5/1 512/7/1
f 513/19/1 514/18/1 515/7/1 516/20/1
f 517/19/1 518/18/1 519/7/1 520/20/1
f 521/19/1 522/18/1 523/7/1 524/20/1
f 525/19/1 526/18/1 527/7/1 528/20/1
f 529/19/1 530/18/1 531/7/1 532/20/1
f 533/19/1 534/18/1 535/7/1 536/20/1
f 537/19/1 538/18/1 539/7/1 540/20/1
f 541/19/1 542/18/1 543/7/1 544/20/1
f 545/19/1 546/18/1 547/7/1 548/20/1
f 549/19/1 550/18/1 551/7/1 552/20/1
f 553/19/1 554/18/1 555/7/1 556/20/1
f 557/19/1 558/18/1 559/7/1 560/20/1
f 561/19/1 562/18/1 563/7/1 564/20/1
f 565/19/1 566/18/1 567/7/1 568/20/1
f 569/9/1 570/10/1 571/2/1 572/1/1
f 573/18/1 574/17/1 575/5/1 576/7/1
f 577/9/1 578/10/1 579/2/1 580/1/1
f 581/21/1 582/22/1 583/12/1 584/11/1
f 585/5/1 586/1/1 587/4/1 588/6/1
f 589/5/1 590/1/1 591/4/1 592/6/1
f 593/5/1 594/1/1 595/4/1 596/6/1
f 597/5/1 598/1/1 599/4/1 600/6/1
f 601/5/1 602/1/1 603/4/1 604/6/1
f 605/5/1 606/1/1 607/4/1 608/6/1
f 609/5/1 610/1/1 611/4/1 612/6/1
f 613/5/1 614/1/1 615/4/1 616/6/1
f 617/7/1 618/5/1 619/6/1 620/8/1
f 621/19/1 622/18/1 623/7/1 624/20/1
f 625/19/1 626/18/1 627/7/1 628/20/1
f 629/1/1 630/2/1 631/3/1 632/4/1
f 633/5/1 634/1/1 635/4/1 636/6/1
f 637/5/1 638/1/1 639/4/1 640/6/1
f 641/10/1 642/21/1 643/11/1 644/2/1
f 645/18/1 646/17/1 647/5/1 648/7/1
f 649/16/1 650/23/1 651/10/1 652/9/1
f 653/15/1 654/16/1 655/9/1 656/17/1
f 657/15/1 658/16/1 659/9/1 660/17/1
f 661/15/1 662/16/1 663/9/1 664/17/1
f 665/15/1 666/16/1 667/9/1 668/17/1
f 669/15/1 670/16/1 671/9/1 672/17/1
f 673/15/1 674/16/1 675/9/1 676/17/1
f 677/15/1 678/16/1 679/9/1 680/17/1
f 681/15/1 682/16/1 683/9/1 684/17/1
f 685/15/1 686/16/1 687/9/1 688/17/1
f 689/24/1 690/15/1 691/17/1 692/18/1
f 693/19/1 694/18/1 695/7/1 696/20/1
f 697/19/1 698/18/1 699/7/1 700/20/1
f 701/16/1 702/23/1 703/10/1 704/9/1
f 705/15/1 706/16/1 707/9/1 708/17/1
f 709/15/1 710/16/1 711/9/1 712/17/1
f 713/15/1 714/16/1 715/9/1 716/17/1
f 717/24/1 718/15/1 719/17/1 720/18/1

