# Tiled2Unity generated file. Do not modify by hand.
# Wavefront file for 'overworld_1_mesh_0003.obj'

# Vertices (Count = 28)
v -416 -688 0
v -432 -688 0
v -432 -672 0
v -416 -672 0
v -448 -704 0
v -464 -704 0
v -464 -688 0
v -448 -688 0
v -432 -704 0
v -448 -704 0
v -448 -688 0
v -432 -688 0
v -416 -704 0
v -432 -704 0
v -432 -688 0
v -416 -688 0
v -448 -720 0
v -464 -720 0
v -464 -704 0
v -448 -704 0
v -432 -720 0
v -448 -720 0
v -448 -704 0
v -432 -704 0
v -448 -736 0
v -464 -736 0
v -464 -720 0
v -448 -720 0

# Texture cooridinates (Count = 4)
vt 0.06060606 0.95
vt 0.09090909 0.95
vt 0.09090909 1
vt 0.06060606 1

# Normal
vn 0 0 -1

# Mesh description
g overworld_1_mesh_0003

# Faces
f 1/1/1 2/2/1 3/3/1 4/4/1
f 5/1/1 6/2/1 7/3/1 8/4/1
f 9/1/1 10/2/1 11/3/1 12/4/1
f 13/1/1 14/2/1 15/3/1 16/4/1
f 17/1/1 18/2/1 19/3/1 20/4/1
f 21/1/1 22/2/1 23/3/1 24/4/1
f 25/1/1 26/2/1 27/3/1 28/4/1

