# Tiled2Unity generated file. Do not modify by hand.
# Wavefront file for 'overworld_1_mesh_0005.obj'

# Vertices (Count = 124)
v -64 -96 0
v -80 -96 0
v -80 -80 0
v -64 -80 0
v -48 -96 0
v -64 -96 0
v -64 -80 0
v -48 -80 0
v -64 -112 0
v -80 -112 0
v -80 -96 0
v -64 -96 0
v -48 -112 0
v -64 -112 0
v -64 -96 0
v -48 -96 0
v -48 -128 0
v -64 -128 0
v -64 -112 0
v -48 -112 0
v -32 -128 0
v -48 -128 0
v -48 -112 0
v -32 -112 0
v -48 -144 0
v -64 -144 0
v -64 -128 0
v -48 -128 0
v -32 -144 0
v -48 -144 0
v -48 -128 0
v -32 -128 0
v 0 -160 0
v -16 -160 0
v -16 -144 0
v 0 -144 0
v 0 -176 0
v -16 -176 0
v -16 -160 0
v 0 -160 0
v -528 -800 0
v -544 -800 0
v -544 -784 0
v -528 -784 0
v -512 -800 0
v -528 -800 0
v -528 -784 0
v -512 -784 0
v -496 -800 0
v -512 -800 0
v -512 -784 0
v -496 -784 0
v -480 -800 0
v -496 -800 0
v -496 -784 0
v -480 -784 0
v -464 -800 0
v -480 -800 0
v -480 -784 0
v -464 -784 0
v -448 -800 0
v -464 -800 0
v -464 -784 0
v -448 -784 0
v -432 -800 0
v -448 -800 0
v -448 -784 0
v -432 -784 0
v -416 -800 0
v -432 -800 0
v -432 -784 0
v -416 -784 0
v -400 -800 0
v -416 -800 0
v -416 -784 0
v -400 -784 0
v -384 -800 0
v -400 -800 0
v -400 -784 0
v -384 -784 0
v -368 -800 0
v -384 -800 0
v -384 -784 0
v -368 -784 0
v -352 -800 0
v -368 -800 0
v -368 -784 0
v -352 -784 0
v -336 -800 0
v -352 -800 0
v -352 -784 0
v -336 -784 0
v -320 -800 0
v -336 -800 0
v -336 -784 0
v -320 -784 0
v -304 -800 0
v -320 -800 0
v -320 -784 0
v -304 -784 0
v -288 -800 0
v -304 -800 0
v -304 -784 0
v -288 -784 0
v -272 -800 0
v -288 -800 0
v -288 -784 0
v -272 -784 0
v -256 -800 0
v -272 -800 0
v -272 -784 0
v -256 -784 0
v -240 -800 0
v -256 -800 0
v -256 -784 0
v -240 -784 0
v -224 -800 0
v -240 -800 0
v -240 -784 0
v -224 -784 0
v -208 -800 0
v -224 -800 0
v -224 -784 0
v -208 -784 0

# Texture cooridinates (Count = 45)
vt 0.55 0.4166667
vt 0.575 0.4166667
vt 0.575 0.4444444
vt 0.55 0.4444444
vt 0.525 0.4166667
vt 0.525 0.4444444
vt 0.55 0.3888889
vt 0.575 0.3888889
vt 0.525 0.3888889
vt 0.9 0.75
vt 0.925 0.75
vt 0.925 0.7777778
vt 0.9 0.7777778
vt 0.875 0.75
vt 0.875 0.7777778
vt 0.9 0.7222222
vt 0.925 0.7222222
vt 0.875 0.7222222
vt 0.825 0.9166667
vt 0.85 0.9166667
vt 0.85 0.9444444
vt 0.825 0.9444444
vt 0.725 0.8888889
vt 0.75 0.8888889
vt 0.75 0.9166667
vt 0.725 0.9166667
vt 0.075 0.5277778
vt 0.1 0.5277778
vt 0.1 0.5555556
vt 0.075 0.5555556
vt 0.125 0.4722222
vt 0.15 0.4722222
vt 0.15 0.5
vt 0.125 0.5
vt 0.125 0.5277778
vt 0.15 0.5277778
vt 0.15 0.5555556
vt 0.125 0.5555556
vt 0.025 0.4444444
vt 0.05 0.4444444
vt 0.05 0.4722222
vt 0.025 0.4722222
vt 0.1 0.5
vt 0 0.4444444
vt 0 0.4722222

# Normal
vn 0 0 -1

# Mesh description
g overworld_1_mesh_0005

# Faces
f 1/1/1 2/2/1 3/3/1 4/4/1
f 5/5/1 6/1/1 7/4/1 8/6/1
f 9/7/1 10/8/1 11/2/1 12/1/1
f 13/9/1 14/7/1 15/1/1 16/5/1
f 17/10/1 18/11/1 19/12/1 20/13/1
f 21/14/1 22/10/1 23/13/1 24/15/1
f 25/16/1 26/17/1 27/11/1 28/10/1
f 29/18/1 30/16/1 31/10/1 32/14/1
f 33/19/1 34/20/1 35/21/1 36/22/1
f 37/23/1 38/24/1 39/25/1 40/26/1
f 41/27/1 42/28/1 43/29/1 44/30/1
f 45/31/1 46/32/1 47/33/1 48/34/1
f 49/31/1 50/32/1 51/33/1 52/34/1
f 53/31/1 54/32/1 55/33/1 56/34/1
f 57/31/1 58/32/1 59/33/1 60/34/1
f 61/31/1 62/32/1 63/33/1 64/34/1
f 65/31/1 66/32/1 67/33/1 68/34/1
f 69/31/1 70/32/1 71/33/1 72/34/1
f 73/31/1 74/32/1 75/33/1 76/34/1
f 77/35/1 78/36/1 79/37/1 80/38/1
f 81/39/1 82/40/1 83/41/1 84/42/1
f 85/43/1 86/34/1 87/35/1 88/28/1
f 89/43/1 90/34/1 91/35/1 92/28/1
f 93/43/1 94/34/1 95/35/1 96/28/1
f 97/43/1 98/34/1 99/35/1 100/28/1
f 101/43/1 102/34/1 103/35/1 104/28/1
f 105/43/1 106/34/1 107/35/1 108/28/1
f 109/43/1 110/34/1 111/35/1 112/28/1
f 113/43/1 114/34/1 115/35/1 116/28/1
f 117/43/1 118/34/1 119/35/1 120/28/1
f 121/44/1 122/39/1 123/42/1 124/45/1

