# Tiled2Unity generated file. Do not modify by hand.
# Wavefront file for 'Overworld_mesh_0005.obj'

# Vertices (Count = 12)
v -192 -128 0
v -208 -128 0
v -208 -112 0
v -192 -112 0
v -192 -144 0
v -208 -144 0
v -208 -128 0
v -192 -128 0
v -176 -144 0
v -192 -144 0
v -192 -128 0
v -176 -128 0

# Texture cooridinates (Count = 4)
vt 0.06060606 0.95
vt 0.09090909 0.95
vt 0.09090909 1
vt 0.06060606 1

# Normal
vn 0 0 -1

# Mesh description
g Overworld_mesh_0005

# Faces
f 1/1/1 2/2/1 3/3/1 4/4/1
f 5/1/1 6/2/1 7/3/1 8/4/1
f 9/1/1 10/2/1 11/3/1 12/4/1

