# Tiled2Unity generated file. Do not modify by hand.
# Wavefront file for 'HomeHouseInterior_mesh_0003.obj'

# Vertices (Count = 152)
v -208 -16 0
v -224 -16 0
v -224 0 0
v -208 0 0
v -192 -16 0
v -208 -16 0
v -208 0 0
v -192 0 0
v -176 -16 0
v -192 -16 0
v -192 0 0
v -176 0 0
v -96 -16 0
v -112 -16 0
v -112 0 0
v -96 0 0
v -80 -16 0
v -96 -16 0
v -96 0 0
v -80 0 0
v -208 -32 0
v -224 -32 0
v -224 -16 0
v -208 -16 0
v -192 -32 0
v -208 -32 0
v -208 -16 0
v -192 -16 0
v -176 -32 0
v -192 -32 0
v -192 -16 0
v -176 -16 0
v -96 -32 0
v -112 -32 0
v -112 -16 0
v -96 -16 0
v -80 -32 0
v -96 -32 0
v -96 -16 0
v -80 -16 0
v -208 -48 0
v -224 -48 0
v -224 -32 0
v -208 -32 0
v -192 -48 0
v -208 -48 0
v -208 -32 0
v -192 -32 0
v -176 -48 0
v -192 -48 0
v -192 -32 0
v -176 -32 0
v -96 -48 0
v -112 -48 0
v -112 -32 0
v -96 -32 0
v -80 -48 0
v -96 -48 0
v -96 -32 0
v -80 -32 0
v -48 -48 0
v -64 -48 0
v -64 -32 0
v -48 -32 0
v -32 -48 0
v -48 -48 0
v -48 -32 0
v -32 -32 0
v -224 -64 0
v -240 -64 0
v -240 -48 0
v -224 -48 0
v -208 -64 0
v -224 -64 0
v -224 -48 0
v -208 -48 0
v -192 -64 0
v -208 -64 0
v -208 -48 0
v -192 -48 0
v -176 -64 0
v -192 -64 0
v -192 -48 0
v -176 -48 0
v -160 -64 0
v -176 -64 0
v -176 -48 0
v -160 -48 0
v -48 -64 0
v -64 -64 0
v -64 -48 0
v -48 -48 0
v -32 -64 0
v -48 -64 0
v -48 -48 0
v -32 -48 0
v -224 -80 0
v -240 -80 0
v -240 -64 0
v -224 -64 0
v -208 -80 0
v -224 -80 0
v -224 -64 0
v -208 -64 0
v -192 -80 0
v -208 -80 0
v -208 -64 0
v -192 -64 0
v -176 -80 0
v -192 -80 0
v -192 -64 0
v -176 -64 0
v -160 -80 0
v -176 -80 0
v -176 -64 0
v -160 -64 0
v -48 -80 0
v -64 -80 0
v -64 -64 0
v -48 -64 0
v -32 -80 0
v -48 -80 0
v -48 -64 0
v -32 -64 0
v -224 -96 0
v -240 -96 0
v -240 -80 0
v -224 -80 0
v -208 -96 0
v -224 -96 0
v -224 -80 0
v -208 -80 0
v -192 -96 0
v -208 -96 0
v -208 -80 0
v -192 -80 0
v -176 -96 0
v -192 -96 0
v -192 -80 0
v -176 -80 0
v -160 -96 0
v -176 -96 0
v -176 -80 0
v -160 -80 0
v -32 -112 0
v -48 -112 0
v -48 -96 0
v -32 -96 0
v -32 -128 0
v -48 -128 0
v -48 -112 0
v -32 -112 0

# Texture cooridinates (Count = 78)
vt 0.2 0.6
vt 0.225 0.6
vt 0.225 0.64
vt 0.2 0.64
vt 0.175 0.6
vt 0.175 0.64
vt 0.15 0.6
vt 0.15 0.64
vt 0.325 0.56
vt 0.35 0.56
vt 0.35 0.6
vt 0.325 0.6
vt 0.3 0.56
vt 0.3 0.6
vt 0.2 0.56
vt 0.225 0.56
vt 0.175 0.56
vt 0.15 0.56
vt 0.325 0.52
vt 0.35 0.52
vt 0.3 0.52
vt 0.2 0.52
vt 0.225 0.52
vt 0.175 0.52
vt 0.15 0.52
vt 0.275 0.48
vt 0.3 0.48
vt 0.275 0.52
vt 0.25 0.48
vt 0.25 0.52
vt 0.525 0.92
vt 0.55 0.92
vt 0.55 0.96
vt 0.525 0.96
vt 0.5 0.92
vt 0.5 0.96
vt 0.45 0.8
vt 0.475 0.8
vt 0.475 0.84
vt 0.45 0.84
vt 0.3 0.92
vt 0.325 0.92
vt 0.325 0.96
vt 0.3 0.96
vt 0.275 0.92
vt 0.275 0.96
vt 0.25 0.92
vt 0.25 0.96
vt 0.4 0.8
vt 0.425 0.8
vt 0.425 0.84
vt 0.4 0.84
vt 0.525 0.88
vt 0.55 0.88
vt 0.5 0.88
vt 0.45 0.76
vt 0.475 0.76
vt 0.3 0.88
vt 0.325 0.88
vt 0.275 0.88
vt 0.25 0.88
vt 0.4 0.76
vt 0.425 0.76
vt 0.525 0.84
vt 0.55 0.84
vt 0.5 0.84
vt 0.45 0.72
vt 0.475 0.72
vt 0.3 0.84
vt 0.325 0.84
vt 0.275 0.84
vt 0.25 0.84
vt 0.4 0.72
vt 0.425 0.72
vt 0.2 0.48
vt 0.225 0.48
vt 0.2 0.44
vt 0.225 0.44

# Normal
vn 0 0 -1

# Mesh description
g HomeHouseInterior_mesh_0003

# Faces
f 1/1/1 2/2/1 3/3/1 4/4/1
f 5/5/1 6/1/1 7/4/1 8/6/1
f 9/7/1 10/5/1 11/6/1 12/8/1
f 13/9/1 14/10/1 15/11/1 16/12/1
f 17/13/1 18/9/1 19/12/1 20/14/1
f 21/15/1 22/16/1 23/2/1 24/1/1
f 25/17/1 26/15/1 27/1/1 28/5/1
f 29/18/1 30/17/1 31/5/1 32/7/1
f 33/19/1 34/20/1 35/10/1 36/9/1
f 37/21/1 38/19/1 39/9/1 40/13/1
f 41/22/1 42/23/1 43/16/1 44/15/1
f 45/24/1 46/22/1 47/15/1 48/17/1
f 49/25/1 50/24/1 51/17/1 52/18/1
f 53/26/1 54/27/1 55/21/1 56/28/1
f 57/29/1 58/26/1 59/28/1 60/30/1
f 61/31/1 62/32/1 63/33/1 64/34/1
f 65/35/1 66/31/1 67/34/1 68/36/1
f 69/37/1 70/38/1 71/39/1 72/40/1
f 73/41/1 74/42/1 75/43/1 76/44/1
f 77/45/1 78/41/1 79/44/1 80/46/1
f 81/47/1 82/45/1 83/46/1 84/48/1
f 85/49/1 86/50/1 87/51/1 88/52/1
f 89/53/1 90/54/1 91/32/1 92/31/1
f 93/55/1 94/53/1 95/31/1 96/35/1
f 97/56/1 98/57/1 99/38/1 100/37/1
f 101/58/1 102/59/1 103/42/1 104/41/1
f 105/60/1 106/58/1 107/41/1 108/45/1
f 109/61/1 110/60/1 111/45/1 112/47/1
f 113/62/1 114/63/1 115/50/1 116/49/1
f 117/64/1 118/65/1 119/54/1 120/53/1
f 121/66/1 122/64/1 123/53/1 124/55/1
f 125/67/1 126/68/1 127/57/1 128/56/1
f 129/69/1 130/70/1 131/59/1 132/58/1
f 133/71/1 134/69/1 135/58/1 136/60/1
f 137/72/1 138/71/1 139/60/1 140/61/1
f 141/73/1 142/74/1 143/63/1 144/62/1
f 145/75/1 146/76/1 147/23/1 148/22/1
f 149/77/1 150/78/1 151/76/1 152/75/1

