# Tiled2Unity generated file. Do not modify by hand.
# Wavefront file for 'dungeon_1_mesh_0003.obj'

# Vertices (Count = 192)
v -416 -16 0
v -432 -16 0
v -432 0 0
v -416 0 0
v -368 -16 0
v -384 -16 0
v -384 0 0
v -368 0 0
v -320 -16 0
v -336 -16 0
v -336 0 0
v -320 0 0
v -288 -16 0
v -304 -16 0
v -304 0 0
v -288 0 0
v -272 -16 0
v -288 -16 0
v -288 0 0
v -272 0 0
v -288 -32 0
v -304 -32 0
v -304 -16 0
v -288 -16 0
v -272 -32 0
v -288 -32 0
v -288 -16 0
v -272 -16 0
v -272 -48 0
v -288 -48 0
v -288 -32 0
v -272 -32 0
v -272 -64 0
v -288 -64 0
v -288 -48 0
v -272 -48 0
v -272 -80 0
v -288 -80 0
v -288 -64 0
v -272 -64 0
v -400 -272 0
v -416 -272 0
v -416 -256 0
v -400 -256 0
v -336 -272 0
v -352 -272 0
v -352 -256 0
v -336 -256 0
v -400 -288 0
v -416 -288 0
v -416 -272 0
v -400 -272 0
v -336 -288 0
v -352 -288 0
v -352 -272 0
v -336 -272 0
v -288 -400 0
v -304 -400 0
v -304 -384 0
v -288 -384 0
v -464 -416 0
v -480 -416 0
v -480 -400 0
v -464 -400 0
v -288 -416 0
v -304 -416 0
v -304 -400 0
v -288 -400 0
v -288 -432 0
v -304 -432 0
v -304 -416 0
v -288 -416 0
v -272 -432 0
v -288 -432 0
v -288 -416 0
v -272 -416 0
v -464 -448 0
v -480 -448 0
v -480 -432 0
v -464 -432 0
v -320 -448 0
v -336 -448 0
v -336 -432 0
v -320 -432 0
v -288 -448 0
v -304 -448 0
v -304 -432 0
v -288 -432 0
v -432 -464 0
v -448 -464 0
v -448 -448 0
v -432 -448 0
v -416 -464 0
v -432 -464 0
v -432 -448 0
v -416 -448 0
v -400 -464 0
v -416 -464 0
v -416 -448 0
v -400 -448 0
v -384 -464 0
v -400 -464 0
v -400 -448 0
v -384 -448 0
v -352 -464 0
v -368 -464 0
v -368 -448 0
v -352 -448 0
v -336 -464 0
v -352 -464 0
v -352 -448 0
v -336 -448 0
v -320 -464 0
v -336 -464 0
v -336 -448 0
v -320 -448 0
v -304 -464 0
v -320 -464 0
v -320 -448 0
v -304 -448 0
v -288 -464 0
v -304 -464 0
v -304 -448 0
v -288 -448 0
v -464 -480 0
v -480 -480 0
v -480 -464 0
v -464 -464 0
v -448 -480 0
v -464 -480 0
v -464 -464 0
v -448 -464 0
v -432 -480 0
v -448 -480 0
v -448 -464 0
v -432 -464 0
v -416 -480 0
v -432 -480 0
v -432 -464 0
v -416 -464 0
v -400 -480 0
v -416 -480 0
v -416 -464 0
v -400 -464 0
v -384 -480 0
v -400 -480 0
v -400 -464 0
v -384 -464 0
v -368 -480 0
v -384 -480 0
v -384 -464 0
v -368 -464 0
v -352 -480 0
v -368 -480 0
v -368 -464 0
v -352 -464 0
v -336 -480 0
v -352 -480 0
v -352 -464 0
v -336 -464 0
v -320 -480 0
v -336 -480 0
v -336 -464 0
v -320 -464 0
v -304 -480 0
v -320 -480 0
v -320 -464 0
v -304 -464 0
v -432 -496 0
v -448 -496 0
v -448 -480 0
v -432 -480 0
v -416 -496 0
v -432 -496 0
v -432 -480 0
v -416 -480 0
v -384 -496 0
v -400 -496 0
v -400 -480 0
v -384 -480 0
v -368 -496 0
v -384 -496 0
v -384 -480 0
v -368 -480 0
v -352 -496 0
v -368 -496 0
v -368 -480 0
v -352 -480 0
v -336 -496 0
v -352 -496 0
v -352 -480 0
v -336 -480 0

# Texture cooridinates (Count = 34)
vt 0.65 0.9722222
vt 0.675 0.9722222
vt 0.675 1
vt 0.65 1
vt 0.825 0.9722222
vt 0.85 0.9722222
vt 0.85 1
vt 0.825 1
vt 0.825 0.9444444
vt 0.85 0.9444444
vt 0.875 0.9722222
vt 0.875 1
vt 0.75 0.9722222
vt 0.775 0.9722222
vt 0.775 1
vt 0.75 1
vt 0.75 0.9444444
vt 0.775 0.9444444
vt 0.125 0.2222222
vt 0.15 0.2222222
vt 0.15 0.25
vt 0.125 0.25
vt 0.125 0.1944444
vt 0.15 0.1944444
vt 0.675 0.9166667
vt 0.7 0.9166667
vt 0.7 0.9444444
vt 0.675 0.9444444
vt 0.725 0.9166667
vt 0.725 0.9444444
vt 0.7 0.9722222
vt 0.75 0.9166667
vt 0.7 0.8888889
vt 0.725 0.8888889

# Normal
vn 0 0 -1

# Mesh description
g dungeon_1_mesh_0003

# Faces
f 1/1/1 2/2/1 3/3/1 4/4/1
f 5/1/1 6/2/1 7/3/1 8/4/1
f 9/1/1 10/2/1 11/3/1 12/4/1
f 13/5/1 14/6/1 15/7/1 16/8/1
f 17/5/1 18/6/1 19/7/1 20/8/1
f 21/9/1 22/10/1 23/6/1 24/5/1
f 25/6/1 26/11/1 27/12/1 28/7/1
f 29/9/1 30/10/1 31/6/1 32/5/1
f 33/13/1 34/14/1 35/15/1 36/16/1
f 37/17/1 38/18/1 39/14/1 40/13/1
f 41/19/1 42/20/1 43/21/1 44/22/1
f 45/19/1 46/20/1 47/21/1 48/22/1
f 49/23/1 50/24/1 51/20/1 52/19/1
f 53/23/1 54/24/1 55/20/1 56/19/1
f 57/25/1 58/26/1 59/27/1 60/28/1
f 61/26/1 62/29/1 63/30/1 64/27/1
f 65/25/1 66/26/1 67/27/1 68/28/1
f 69/25/1 70/26/1 71/27/1 72/28/1
f 73/26/1 74/29/1 75/30/1 76/27/1
f 77/26/1 78/29/1 79/30/1 80/27/1
f 81/28/1 82/27/1 83/31/1 84/2/1
f 85/25/1 86/26/1 87/27/1 88/28/1
f 89/29/1 90/32/1 91/17/1 92/30/1
f 93/29/1 94/32/1 95/17/1 96/30/1
f 97/29/1 98/32/1 99/17/1 100/30/1
f 101/29/1 102/32/1 103/17/1 104/30/1
f 105/28/1 106/27/1 107/31/1 108/2/1
f 109/28/1 110/27/1 111/31/1 112/2/1
f 113/28/1 114/27/1 115/31/1 116/2/1
f 117/26/1 118/29/1 119/30/1 120/27/1
f 121/25/1 122/26/1 123/27/1 124/28/1
f 125/29/1 126/32/1 127/17/1 128/30/1
f 129/29/1 130/32/1 131/17/1 132/30/1
f 133/29/1 134/32/1 135/17/1 136/30/1
f 137/28/1 138/27/1 139/31/1 140/2/1
f 141/26/1 142/29/1 143/30/1 144/27/1
f 145/33/1 146/34/1 147/29/1 148/26/1
f 149/29/1 150/32/1 151/17/1 152/30/1
f 153/33/1 154/34/1 155/29/1 156/26/1
f 157/25/1 158/26/1 159/27/1 160/28/1
f 161/26/1 162/29/1 163/30/1 164/27/1
f 165/25/1 166/26/1 167/27/1 168/28/1
f 169/26/1 170/29/1 171/30/1 172/27/1
f 173/33/1 174/34/1 175/29/1 176/26/1
f 177/33/1 178/34/1 179/29/1 180/26/1
f 181/29/1 182/32/1 183/17/1 184/30/1
f 185/25/1 186/26/1 187/27/1 188/28/1
f 189/25/1 190/26/1 191/27/1 192/28/1

