# Tiled2Unity generated file. Do not modify by hand.
# Wavefront file for 'dungeon_1_mesh_0004.obj'

# Vertices (Count = 104)
v -144 -256 0
v -160 -256 0
v -160 -240 0
v -144 -240 0
v -176 -272 0
v -192 -272 0
v -192 -256 0
v -176 -256 0
v -144 -272 0
v -160 -272 0
v -160 -256 0
v -144 -256 0
v -64 -272 0
v -80 -272 0
v -80 -256 0
v -64 -256 0
v -176 -288 0
v -192 -288 0
v -192 -272 0
v -176 -272 0
v -64 -288 0
v -80 -288 0
v -80 -272 0
v -64 -272 0
v -176 -304 0
v -192 -304 0
v -192 -288 0
v -176 -288 0
v -64 -304 0
v -80 -304 0
v -80 -288 0
v -64 -288 0
v -208 -320 0
v -224 -320 0
v -224 -304 0
v -208 -304 0
v -32 -320 0
v -48 -320 0
v -48 -304 0
v -32 -304 0
v -208 -336 0
v -224 -336 0
v -224 -320 0
v -208 -320 0
v -32 -336 0
v -48 -336 0
v -48 -320 0
v -32 -320 0
v -208 -352 0
v -224 -352 0
v -224 -336 0
v -208 -336 0
v -32 -352 0
v -48 -352 0
v -48 -336 0
v -32 -336 0
v -208 -368 0
v -224 -368 0
v -224 -352 0
v -208 -352 0
v -32 -368 0
v -48 -368 0
v -48 -352 0
v -32 -352 0
v -208 -384 0
v -224 -384 0
v -224 -368 0
v -208 -368 0
v -32 -384 0
v -48 -384 0
v -48 -368 0
v -32 -368 0
v -208 -400 0
v -224 -400 0
v -224 -384 0
v -208 -384 0
v -32 -400 0
v -48 -400 0
v -48 -384 0
v -32 -384 0
v -208 -416 0
v -224 -416 0
v -224 -400 0
v -208 -400 0
v -32 -416 0
v -48 -416 0
v -48 -400 0
v -32 -400 0
v -208 -432 0
v -224 -432 0
v -224 -416 0
v -208 -416 0
v -32 -432 0
v -48 -432 0
v -48 -416 0
v -32 -416 0
v -208 -448 0
v -224 -448 0
v -224 -432 0
v -208 -432 0
v -32 -448 0
v -48 -448 0
v -48 -432 0
v -32 -432 0

# Texture cooridinates (Count = 22)
vt 0.175 0.76
vt 0.2 0.76
vt 0.2 0.8
vt 0.175 0.8
vt 0.2 0.96
vt 0.225 0.96
vt 0.225 1
vt 0.2 1
vt 0.175 0.72
vt 0.2 0.72
vt 0.2 0.92
vt 0.225 0.92
vt 0.2 0.88
vt 0.225 0.88
vt 0.175 0.96
vt 0.175 1
vt 0.15 0.96
vt 0.15 1
vt 0.175 0.92
vt 0.15 0.92
vt 0.175 0.88
vt 0.15 0.88

# Normal
vn 0 0 -1

# Mesh description
g dungeon_1_mesh_0004

# Faces
f 1/1/1 2/2/1 3/3/1 4/4/1
f 5/5/1 6/6/1 7/7/1 8/8/1
f 9/9/1 10/10/1 11/2/1 12/1/1
f 13/5/1 14/6/1 15/7/1 16/8/1
f 17/11/1 18/12/1 19/6/1 20/5/1
f 21/11/1 22/12/1 23/6/1 24/5/1
f 25/13/1 26/14/1 27/12/1 28/11/1
f 29/13/1 30/14/1 31/12/1 32/11/1
f 33/15/1 34/5/1 35/8/1 36/16/1
f 37/17/1 38/15/1 39/16/1 40/18/1
f 41/19/1 42/11/1 43/5/1 44/15/1
f 45/20/1 46/19/1 47/15/1 48/17/1
f 49/21/1 50/13/1 51/11/1 52/19/1
f 53/22/1 54/21/1 55/19/1 56/20/1
f 57/15/1 58/5/1 59/8/1 60/16/1
f 61/17/1 62/15/1 63/16/1 64/18/1
f 65/19/1 66/11/1 67/5/1 68/15/1
f 69/20/1 70/19/1 71/15/1 72/17/1
f 73/21/1 74/13/1 75/11/1 76/19/1
f 77/22/1 78/21/1 79/19/1 80/20/1
f 81/15/1 82/5/1 83/8/1 84/16/1
f 85/17/1 86/15/1 87/16/1 88/18/1
f 89/19/1 90/11/1 91/5/1 92/15/1
f 93/20/1 94/19/1 95/15/1 96/17/1
f 97/21/1 98/13/1 99/11/1 100/19/1
f 101/22/1 102/21/1 103/19/1 104/20/1

